<svg t="1567359932514" class="icon" viewBox="0 0 1024 1024" version="1.1" xmlns="http://www.w3.org/2000/svg" p-id="11639" height="200" width="200"><path d="M537.6 982.4c-19.2 0-38.4-9.6-54.4-25.6l-214.4-230.4H147.2c-44.8 0-83.2-38.4-83.2-83.2v-262.4c0-44.8 38.4-83.2 83.2-83.2h121.6l214.4-230.4c19.2-22.4 48-32 76.8-22.4 28.8 9.6 48 35.2 48 64v803.2c0 28.8-19.2 54.4-48 64-6.4 6.4-12.8 6.4-22.4 6.4zM147.2 361.6c-9.6 0-19.2 9.6-19.2 19.2v262.4c0 9.6 9.6 19.2 19.2 19.2h134.4c9.6 0 16 3.2 22.4 9.6l227.2 240s0 3.2 3.2 3.2c0 0 3.2 3.2 6.4 3.2s3.2-3.2 3.2-3.2V108.8s0-3.2-3.2-3.2-3.2 0-6.4 3.2c0 0 0 3.2-3.2 3.2l-224 240c-6.4 6.4-16 9.6-22.4 9.6H147.2zM672 905.6c-12.8 0-25.6-9.6-28.8-22.4-6.4-16 3.2-35.2 19.2-41.6C803.2 793.6 896 662.4 896 512s-96-284.8-236.8-332.8c-16-6.4-25.6-25.6-19.2-41.6s25.6-25.6 41.6-19.2C848 176 960 336 960 512s-112 332.8-278.4 393.6H672z" p-id="11640" fill="#515151"></path><path d="M672 678.4c-12.8 0-25.6-9.6-28.8-22.4-6.4-16 3.2-35.2 19.2-41.6 44.8-16 73.6-57.6 73.6-105.6s-28.8-89.6-73.6-105.6c-16-6.4-25.6-25.6-19.2-41.6 6.4-16 25.6-25.6 41.6-19.2 70.4 25.6 118.4 92.8 118.4 166.4s-48 140.8-118.4 166.4c-6.4 3.2-9.6 3.2-12.8 3.2z" p-id="11641" fill="#515151"></path></svg>